<svg width="501" height="451" viewBox="0 0 501 451" fill="none" xmlns="http://www.w3.org/2000/svg">
<rect width="501" height="451" fill=""/>
<g opacity="0.4" filter="url(#filter0_f_2_18)">
<path d="M243 272.138C243 257.15 255.15 245 270.138 245H389.862C404.85 245 417 257.15 417 272.138V337.048C417 352.036 404.85 364.187 389.861 364.187C389.314 364.187 388.767 364.187 388.223 364.187C384.234 364.187 383.682 382 379.858 382C375.88 382 368.637 364.187 364.8 364.187C332.782 364.187 304.993 364.187 270.145 364.187C255.157 364.187 243 352.036 243 337.048V272.138Z" fill="url(#paint0_linear_2_18)"/>
<path d="M270.138 245.449H389.862C404.602 245.449 416.551 257.398 416.551 272.138V337.048C416.551 351.788 404.602 363.738 389.861 363.738H389.858H389.855H389.852H389.849H389.845H389.842H389.839H389.836H389.833H389.829H389.826H389.823H389.82H389.816H389.813H389.81H389.807H389.804H389.8H389.797H389.794H389.791H389.788H389.784H389.781H389.778H389.775H389.772H389.768H389.765H389.762H389.759H389.756H389.752H389.749H389.746H389.743H389.739H389.736H389.733H389.73H389.727H389.723H389.72H389.717H389.714H389.711H389.707H389.704H389.701H389.698H389.695H389.691H389.688H389.685H389.682H389.679H389.675H389.672H389.669H389.666H389.662H389.659H389.656H389.653H389.65H389.646H389.643H389.64H389.637H389.634H389.63H389.627H389.624H389.621H389.618H389.614H389.611H389.608H389.605H389.602H389.598H389.595H389.592H389.589H389.586H389.582H389.579H389.576H389.573H389.569H389.566H389.563H389.56H389.557H389.553H389.55H389.547H389.544H389.541H389.537H389.534H389.531H389.528H389.525H389.521H389.518H389.515H389.512H389.509H389.505H389.502H389.499H389.496H389.493H389.489H389.486H389.483H389.48H389.477H389.473H389.47H389.467H389.464H389.46H389.457H389.454H389.451H389.448H389.444H389.441H389.438H389.435H389.432H389.428H389.425H389.422H389.419H389.416H389.412H389.409H389.406H389.403H389.4H389.396H389.393H389.39H389.387H389.384H389.38H389.377H389.374H389.371H389.368H389.364H389.361H389.358H389.355H389.352H389.348H389.345H389.342H389.339H389.336H389.332H389.329H389.326H389.323H389.32H389.316H389.313H389.31H389.307H389.303H389.3H389.297H389.294H389.291H389.287H389.284H389.281H389.278H389.275H389.271H389.268H389.265H389.262H389.259H389.255H389.252H389.249H389.246H389.243H389.239H389.236H389.233H389.23H389.227H389.223H389.22H389.217H389.214H389.211H389.207H389.204H389.201H389.198H389.195H389.191H389.188H389.185H389.182H389.179H389.175H389.172H389.169H389.166H389.163H389.159H389.156H389.153H389.15H389.147H389.143H389.14H389.137H389.134H389.131H389.127H389.124H389.121H389.118H389.115H389.111H389.108H389.105H389.102H389.099H389.095H389.092H389.089H389.086H389.083H389.079H389.076H389.073H389.07H389.067H389.063H389.06H389.057H389.054H389.051H389.047H389.044H389.041H389.038H389.035H389.031H389.028H389.025H389.022H389.019H389.015H389.012H389.009H389.006H389.003H388.999H388.996H388.993H388.99H388.987H388.983H388.98H388.977H388.974H388.971H388.967H388.964H388.961H388.958H388.955H388.951H388.948H388.945H388.942H388.939H388.935H388.932H388.929H388.926H388.923H388.919H388.916H388.913H388.91H388.907H388.903H388.9H388.897H388.894H388.891H388.887H388.884H388.881H388.878H388.875H388.871H388.868H388.865H388.862H388.859H388.855H388.852H388.849H388.846H388.843H388.839H388.836H388.833H388.83H388.827H388.823H388.82H388.817H388.814H388.811H388.807H388.804H388.801H388.798H388.795H388.791H388.788H388.785H388.782H388.779H388.776H388.772H388.769H388.766H388.763H388.76H388.756H388.753H388.75H388.747H388.744H388.74H388.737H388.734H388.731H388.728H388.724H388.721H388.718H388.715H388.712H388.708H388.705H388.702H388.699H388.696H388.692H388.689H388.686H388.683H388.68H388.676H388.673H388.67H388.667H388.664H388.66H388.657H388.654H388.651H388.648H388.644H388.641H388.638H388.635H388.632H388.629H388.625H388.622H388.619H388.616H388.613H388.609H388.606H388.603H388.6H388.597H388.593H388.59H388.587H388.584H388.581H388.577H388.574H388.571H388.568H388.565H388.561H388.558H388.555H388.552H388.549H388.545H388.542H388.539H388.536H388.533H388.529H388.526H388.523H388.52H388.517H388.514H388.51H388.507H388.504H388.501H388.498H388.494H388.491H388.488H388.485H388.482H388.478H388.475H388.472H388.469H388.466H388.462H388.459H388.456H388.453H388.45H388.446H388.443H388.44H388.437H388.434H388.43H388.427H388.424H388.421H388.418H388.415H388.411H388.408H388.405H388.402H388.399H388.395H388.392H388.389H388.386H388.383H388.379H388.376H388.373H388.37H388.367H388.363H388.36H388.357H388.354H388.351H388.348H388.344H388.341H388.338H388.335H388.332H388.328H388.325H388.322H388.319H388.316H388.312H388.309H388.306H388.303H388.3H388.296H388.293H388.29H388.287H388.284H388.281H388.277H388.274H388.271H388.268H388.265H388.261H388.258H388.255H388.252H388.249H388.245H388.242H388.239H388.236H388.233H388.229H388.226H388.223C387.538 363.738 386.978 364.124 386.529 364.665C386.081 365.205 385.697 365.951 385.354 366.802C384.668 368.507 384.098 370.767 383.543 372.984L383.512 373.106C382.963 375.301 382.426 377.446 381.799 379.053C381.479 379.873 381.147 380.52 380.8 380.954C380.453 381.39 380.141 381.551 379.858 381.551C379.52 381.551 379.074 381.355 378.513 380.889C377.963 380.432 377.362 379.765 376.721 378.941C375.44 377.293 374.054 375.087 372.657 372.855L372.574 372.722C371.211 370.546 369.839 368.354 368.568 366.697C367.92 365.852 367.285 365.127 366.676 364.61C366.081 364.104 365.444 363.738 364.8 363.738H364.612H364.425H364.238H364.05H363.863H363.676H363.489H363.302H363.115H362.929H362.742H362.556H362.369H362.183H361.997H361.81H361.624H361.438H361.252H361.067H360.881H360.695H360.51H360.324H360.139H359.953H359.768H359.583H359.398H359.213H359.028H358.843H358.659H358.474H358.289H358.105H357.921H357.736H357.552H357.368H357.184H357H356.816H356.632H356.448H356.264H356.081H355.897H355.714H355.53H355.347H355.164H354.98H354.797H354.614H354.431H354.248H354.065H353.882H353.7H353.517H353.334H353.152H352.969H352.787H352.605H352.422H352.24H352.058H351.876H351.694H351.512H351.33H351.148H350.966H350.785H350.603H350.421H350.24H350.058H349.877H349.695H349.514H349.333H349.152H348.97H348.789H348.608H348.427H348.246H348.065H347.884H347.704H347.523H347.342H347.162H346.981H346.8H346.62H346.439H346.259H346.079H345.898H345.718H345.538H345.357H345.177H344.997H344.817H344.637H344.457H344.277H344.097H343.917H343.738H343.558H343.378H343.198H343.019H342.839H342.659H342.48H342.3H342.121H341.941H341.762H341.582H341.403H341.224H341.044H340.865H340.686H340.507H340.328H340.148H339.969H339.79H339.611H339.432H339.253H339.074H338.895H338.716H338.537H338.358H338.18H338.001H337.822H337.643H337.464H337.286H337.107H336.928H336.749H336.571H336.392H336.213H336.035H335.856H335.678H335.499H335.321H335.142H334.963H334.785H334.606H334.428H334.25H334.071H333.893H333.714H333.536H333.357H333.179H333.001H332.822H332.644H332.465H332.287H332.109H331.93H331.752H331.574H331.395H331.217H331.039H330.86H330.682H330.504H330.325H330.147H329.969H329.79H329.612H329.434H329.255H329.077H328.899H328.72H328.542H328.364H328.185H328.007H327.829H327.65H327.472H327.294H327.115H326.937H326.758H326.58H326.402H326.223H326.045H325.866H325.688H325.509H325.331H325.152H324.974H324.795H324.617H324.438H324.26H324.081H323.902H323.724H323.545H323.366H323.188H323.009H322.83H322.652H322.473H322.294H322.115H321.936H321.758H321.579H321.4H321.221H321.042H320.863H320.684H320.505H320.326H320.147H319.968H319.789H319.61H319.43H319.251H319.072H318.893H318.713H318.534H318.355H318.175H317.996H317.816H317.637H317.457H317.278H317.098H316.918H316.739H316.559H316.379H316.199H316.019H315.84H315.66H315.48H315.3H315.12H314.94H314.759H314.579H314.399H314.219H314.038H313.858H313.678H313.497H313.317H313.136H312.956H312.775H312.594H312.414H312.233H312.052H311.871H311.69H311.509H311.328H311.147H310.966H310.785H310.604H310.422H310.241H310.059H309.878H309.696H309.515H309.333H309.152H308.97H308.788H308.606H308.424H308.242H308.06H307.878H307.696H307.514H307.331H307.149H306.966H306.784H306.601H306.419H306.236H306.053H305.87H305.688H305.505H305.322H305.138H304.955H304.772H304.589H304.405H304.222H304.038H303.855H303.671H303.487H303.304H303.12H302.936H302.752H302.567H302.383H302.199H302.015H301.83H301.646H301.461H301.276H301.092H300.907H300.722H300.537H300.352H300.167H299.981H299.796H299.611H299.425H299.24H299.054H298.868H298.682H298.496H298.31H298.124H297.938H297.752H297.565H297.379H297.192H297.006H296.819H296.632H296.445H296.258H296.071H295.884H295.697H295.509H295.322H295.134H294.946H294.759H294.571H294.383H294.195H294.006H293.818H293.63H293.441H293.253H293.064H292.875H292.686H292.497H292.308H292.119H291.93H291.74H291.551H291.361H291.171H290.982H290.792H290.602H290.411H290.221H290.031H289.84H289.65H289.459H289.268H289.077H288.886H288.695H288.504H288.312H288.121H287.929H287.737H287.546H287.354H287.161H286.969H286.777H286.584H286.392H286.199H286.006H285.813H285.62H285.427H285.234H285.04H284.847H284.653H284.459H284.265H284.071H283.877H283.683H283.489H283.294H283.099H282.904H282.71H282.514H282.319H282.124H281.928H281.733H281.537H281.341H281.145H280.949H280.753H280.556H280.36H280.163H279.966H279.769H279.572H279.375H279.178H278.98H278.783H278.585H278.387H278.189H277.991H277.792H277.594H277.395H277.197H276.998H276.799H276.599H276.4H276.201H276.001H275.801H275.601H275.401H275.201H275H274.8H274.599H274.398H274.197H273.996H273.795H273.594H273.392H273.19H272.988H272.786H272.584H272.382H272.179H271.977H271.774H271.571H271.368H271.164H270.961H270.757H270.553H270.349H270.145C255.405 363.738 243.449 351.788 243.449 337.048V272.138C243.449 257.398 255.398 245.449 270.138 245.449Z" stroke="#979797" stroke-width="0.898396"/>
</g>
<path d="M250 243.208C250 226.524 263.524 213 280.208 213H406.792C423.476 213 437 226.524 437 243.208V315.131C437 331.814 423.475 345.338 406.792 345.338C406.552 345.338 406.312 345.338 406.073 345.338C401.786 345.338 401.192 365.117 397.083 365.117C392.808 365.117 385.023 345.338 380.9 345.338C346.81 345.338 317.181 345.338 280.216 345.338C263.533 345.338 250 331.814 250 315.131V243.208Z" fill="url(#paint1_linear_2_18)"/>
<g filter="url(#filter1_f_2_18)">
<rect x="236" y="213" width="114" height="88" rx="20" fill="#440908"/>
</g>
<g filter="url(#filter2_bi_2_18)">
<path d="M337 149C337 125.804 318.196 107 295 107H119C95.804 107 77 125.804 77 149V249C77 272.196 95.8044 291 119 291C119.334 291 119.667 291 120 291C125.961 291 126.786 318.5 132.5 318.5C138.443 318.5 149.267 291 155 291C202.398 291 243.594 291 294.988 291C318.184 291 337 272.196 337 249V149Z" fill="url(#paint2_linear_2_18)" fill-opacity="0.3"/>
</g>
<circle cx="170.5" cy="201.5" r="11.5" fill="white"/>
<circle cx="207.5" cy="201.5" r="11.5" fill="white"/>
<circle cx="244.5" cy="201.5" r="11.5" fill="white"/>
<defs>
<filter id="filter0_f_2_18" x="203" y="205" width="254" height="217" filterUnits="userSpaceOnUse" color-interpolation-filters="sRGB">
<feFlood flood-opacity="0" result="BackgroundImageFix"/>
<feBlend mode="normal" in="SourceGraphic" in2="BackgroundImageFix" result="shape"/>
<feGaussianBlur stdDeviation="20" result="effect1_foregroundBlur_2_18"/>
</filter>
<filter id="filter1_f_2_18" x="206" y="183" width="174" height="148" filterUnits="userSpaceOnUse" color-interpolation-filters="sRGB">
<feFlood flood-opacity="0" result="BackgroundImageFix"/>
<feBlend mode="normal" in="SourceGraphic" in2="BackgroundImageFix" result="shape"/>
<feGaussianBlur stdDeviation="15" result="effect1_foregroundBlur_2_18"/>
</filter>
<filter id="filter2_bi_2_18" x="52" y="82" width="310" height="261.5" filterUnits="userSpaceOnUse" color-interpolation-filters="sRGB">
<feFlood flood-opacity="0" result="BackgroundImageFix"/>
<feGaussianBlur in="BackgroundImageFix" stdDeviation="12.5"/>
<feComposite in2="SourceAlpha" operator="in" result="effect1_backgroundBlur_2_18"/>
<feBlend mode="normal" in="SourceGraphic" in2="effect1_backgroundBlur_2_18" result="shape"/>
<feColorMatrix in="SourceAlpha" type="matrix" values="0 0 0 0 0 0 0 0 0 0 0 0 0 0 0 0 0 0 127 0" result="hardAlpha"/>
<feOffset dy="4"/>
<feGaussianBlur stdDeviation="20"/>
<feComposite in2="hardAlpha" operator="arithmetic" k2="-1" k3="1"/>
<feColorMatrix type="matrix" values="0 0 0 0 1 0 0 0 0 1 0 0 0 0 1 0 0 0 0.35 0"/>
<feBlend mode="normal" in2="shape" result="effect2_innerShadow_2_18"/>
</filter>
<linearGradient id="paint0_linear_2_18" x1="243" y1="233.742" x2="345.174" y2="472.62" gradientUnits="userSpaceOnUse">
<stop stop-color="#CC1515" stop-opacity="0.8"/>
<stop offset="1" stop-color="#C6311F"/>
</linearGradient>
<linearGradient id="paint1_linear_2_18" x1="281" y1="199.5" x2="405.5" y2="373" gradientUnits="userSpaceOnUse">
<stop offset="0.283719" stop-color="#702B2B"/>
<stop offset="1" stop-color="#C6311F"/>
</linearGradient>
<linearGradient id="paint2_linear_2_18" x1="82.5" y1="107" x2="279.5" y2="290" gradientUnits="userSpaceOnUse">
<stop stop-color="#CC1515" stop-opacity="0.1"/>
<stop offset="0.515821" stop-color="#CC1515" stop-opacity="0.8"/>
<stop offset="0.779545" stop-color="#CC1515"/>
<stop offset="0.988497" stop-color="#FFA636"/>
</linearGradient>
</defs>
</svg>
