<svg width="347" height="100" viewBox="0 0 347 100" fill="none" xmlns="http://www.w3.org/2000/svg">
<path d="M12.2684 49.5898C12.2684 36.121 23.187 25.2024 36.6559 25.2024V60.5H12.2684V49.5898Z" fill="#E9E9EB" stroke="#E9E9EB"/>
<rect x="12.2684" y="60.5" width="24.3874" height="1" fill="#E9E9EB" stroke="#E9E9EB"/>
<path fill-rule="evenodd" clip-rule="evenodd" d="M12.7111 77.0596C12.4205 75.5545 12.2684 74.0001 12.2684 72.4102V61.5H36.6558V96.7976C30.7502 96.7976 25.3349 94.6985 21.1153 91.2057C16.9056 94.0101 10.1554 96.6759 2 95.1931C4.24621 94.2305 12.9102 88.4545 12.5893 76.9026C12.6282 76.9561 12.6688 77.0084 12.7111 77.0596Z" fill="#E9E9EB"/>
<path d="M12.7111 77.0596L12.3256 77.378L13.202 76.9648L12.7111 77.0596ZM12.2684 61.5V61H11.7684V61.5H12.2684ZM36.6558 61.5H37.1558V61H36.6558V61.5ZM36.6558 96.7976V97.2976H37.1558V96.7976H36.6558ZM21.1153 91.2057L21.4341 90.8205L21.1476 90.5833L20.8381 90.7895L21.1153 91.2057ZM2 95.1931L1.80304 94.7336L0.276214 95.3879L1.91056 95.6851L2 95.1931ZM12.5893 76.9026L12.9936 76.6085L12.0447 75.3037L12.0895 76.9165L12.5893 76.9026ZM11.7684 72.4102C11.7684 74.0321 11.9236 75.6182 12.2201 77.1543L13.202 76.9648C12.9175 75.4908 12.7684 73.9681 12.7684 72.4102H11.7684ZM11.7684 61.5V72.4102H12.7684V61.5H11.7684ZM36.6558 61H12.2684V62H36.6558V61ZM37.1558 96.7976V61.5H36.1558V96.7976H37.1558ZM20.7965 91.5908C25.1024 95.1551 30.6296 97.2976 36.6558 97.2976V96.2976C30.8709 96.2976 25.5674 94.2418 21.4341 90.8205L20.7965 91.5908ZM1.91056 95.6851C10.2252 97.1968 17.1053 94.4779 21.3925 91.6218L20.8381 90.7895C16.7058 93.5424 10.0856 96.1551 2.08944 94.7012L1.91056 95.6851ZM12.0895 76.9165C12.2461 82.5544 10.213 86.7739 7.86687 89.7065C5.51094 92.6514 2.84955 94.2851 1.80304 94.7336L2.19696 95.6527C3.39666 95.1386 6.19035 93.4029 8.64773 90.3312C11.1149 87.2472 13.2534 82.8027 13.0891 76.8887L12.0895 76.9165ZM13.0965 76.7411C13.0607 76.6978 13.0264 76.6536 12.9936 76.6085L12.1849 77.1967C12.23 77.2587 12.2769 77.3191 12.3256 77.378L13.0965 76.7411Z" fill="#E9E9EB"/>
<rect x="36.6559" y="27" width="284.957" height="67" fill="#E9E9EB"/>
<rect x="36.6559" y="27" width="284.957" height="67" stroke="#E9E9EB"/>
<path d="M346 51.3874C346 37.9186 335.081 27 321.613 27V62.2976H346V51.3874Z" fill="#E9E9EB" stroke="#E9E9EB"/>
<rect width="24.3874" height="1" transform="matrix(-1 0 0 1 346 62.2976)" fill="#E9E9EB" stroke="#E9E9EB"/>
<path d="M346 74.2077C346 87.6765 335.081 98.5952 321.613 98.5952V63.2976H346V74.2077Z" fill="#E9E9EB" stroke="#E9E9EB"/>
</svg>
