<svg width="423" height="98" viewBox="0 0 423 98" fill="none" xmlns="http://www.w3.org/2000/svg">
<path d="M1 49.3874C1 35.9186 11.9186 25 25.3874 25V60.2976H1V49.3874Z" fill="#37D15D" stroke="#37D15D"/>
<rect x="1" y="60.2976" width="24.3874" height="1" fill="#37D15D" stroke="#37D15D"/>
<path d="M1 72.2077C1 85.6765 11.9186 96.5952 25.3874 96.5952V61.2976H1V72.2077Z" fill="#37D15D" stroke="#37D15D"/>
<rect x="25.3875" y="25" width="360.957" height="67" fill="#37D15D"/>
<rect x="25.3875" y="25" width="360.957" height="67" stroke="#37D15D"/>
<path d="M410.732 47.5898C410.732 34.121 399.813 23.2024 386.344 23.2024V58.5H410.732V47.5898Z" fill="#37D15D" stroke="#37D15D"/>
<rect width="24.3874" height="1" transform="matrix(-1 0 0 1 410.732 58.5)" fill="#37D15D" stroke="#37D15D"/>
<path fill-rule="evenodd" clip-rule="evenodd" d="M410.289 75.0596C410.579 73.5545 410.732 72.0001 410.732 70.4102V59.5H386.344V94.7976C392.25 94.7976 397.665 92.6985 401.885 89.2057C406.094 92.0101 412.845 94.6759 421 93.1931C418.754 92.2305 410.09 86.4545 410.411 74.9026C410.372 74.9561 410.331 75.0084 410.289 75.0596Z" fill="#37D15D"/>
<path d="M410.289 75.0596L410.674 75.378L409.798 74.9648L410.289 75.0596ZM410.732 59.5V59H411.232V59.5H410.732ZM386.344 59.5H385.844V59H386.344V59.5ZM386.344 94.7976V95.2976H385.844V94.7976H386.344ZM401.885 89.2057L401.566 88.8205L401.852 88.5833L402.162 88.7895L401.885 89.2057ZM421 93.1931L421.197 92.7336L422.724 93.3879L421.089 93.6851L421 93.1931ZM410.411 74.9026L410.006 74.6085L410.955 73.3037L410.911 74.9165L410.411 74.9026ZM411.232 70.4102C411.232 72.0321 411.076 73.6182 410.78 75.1543L409.798 74.9648C410.083 73.4908 410.232 71.9681 410.232 70.4102H411.232ZM411.232 59.5V70.4102H410.232V59.5H411.232ZM386.344 59H410.732V60H386.344V59ZM385.844 94.7976V59.5H386.844V94.7976H385.844ZM402.204 89.5908C397.898 93.1551 392.37 95.2976 386.344 95.2976V94.2976C392.129 94.2976 397.433 92.2418 401.566 88.8205L402.204 89.5908ZM421.089 93.6851C412.775 95.1968 405.895 92.4779 401.608 89.6218L402.162 88.7895C406.294 91.5424 412.914 94.1551 420.911 92.7012L421.089 93.6851ZM410.911 74.9165C410.754 80.5544 412.787 84.7739 415.133 87.7065C417.489 90.6514 420.15 92.2851 421.197 92.7336L420.803 93.6527C419.603 93.1386 416.81 91.4029 414.352 88.3312C411.885 85.2472 409.747 80.8027 409.911 74.8887L410.911 74.9165ZM409.903 74.7411C409.939 74.6978 409.974 74.6536 410.006 74.6085L410.815 75.1967C410.77 75.2587 410.723 75.3191 410.674 75.378L409.903 74.7411Z" fill="#37D15D"/>
</svg>
