<svg width="80" height="84" viewBox="0 0 80 84" fill="none" xmlns="http://www.w3.org/2000/svg">
<path fill-rule="evenodd" clip-rule="evenodd" d="M21.1459 25.0557C22.2584 24.986 23.3719 25.0485 24.4659 25.2421C33.1297 26.7697 38.7362 36.032 36.9915 45.9264C35.2464 55.8237 26.8101 62.6098 18.1463 61.0822C9.48243 59.5545 3.87265 50.2947 5.61834 40.3944C5.66939 40.1049 5.7265 39.8134 5.7914 39.5263L5.77202 39.5229C8.40539 24.5882 21.184 14.3121 34.2573 16.6173L33.1966 22.6325C28.9561 21.8848 24.7545 22.8437 21.1459 25.0557ZM56.25 31.2455C57.3418 31.176 58.451 31.2345 59.5644 31.4309C68.2282 32.9585 73.8375 42.2213 72.0929 52.1157C70.3477 62.013 61.9087 68.7986 53.2448 67.271C44.581 65.7433 38.974 56.484 40.7197 46.5837C40.7707 46.2942 40.8278 46.0027 40.8927 45.7156L40.8733 45.7122C43.5067 30.7776 56.2853 20.5014 69.3586 22.8066L68.298 28.8218C64.0547 28.0736 59.8586 29.0335 56.25 31.2455Z" fill="#932D26"/>
</svg>
