<svg width="254" height="217" viewBox="0 0 254 217" fill="none" xmlns="http://www.w3.org/2000/svg">
<g opacity="0.4" filter="url(#filter0_f_2_6)">
<path d="M40 67.1385C40 52.1503 52.1503 40 67.1385 40H186.862C201.85 40 214 52.1503 214 67.1385V132.048C214 147.036 201.85 159.187 186.861 159.187C186.314 159.187 185.767 159.187 185.223 159.187C181.234 159.187 180.682 177 176.858 177C172.88 177 165.637 159.187 161.8 159.187C129.782 159.187 101.993 159.187 67.1453 159.187C52.1572 159.187 40 147.036 40 132.048V67.1385Z" fill="url(#paint0_linear_2_6)"/>
<path d="M67.1385 40.4492H186.862C201.602 40.4492 213.551 52.3984 213.551 67.1385V132.048C213.551 146.788 201.602 158.738 186.861 158.738H186.858H186.855H186.852H186.849H186.845H186.842H186.839H186.836H186.833H186.829H186.826H186.823H186.82H186.816H186.813H186.81H186.807H186.804H186.8H186.797H186.794H186.791H186.788H186.784H186.781H186.778H186.775H186.772H186.768H186.765H186.762H186.759H186.756H186.752H186.749H186.746H186.743H186.739H186.736H186.733H186.73H186.727H186.723H186.72H186.717H186.714H186.711H186.707H186.704H186.701H186.698H186.695H186.691H186.688H186.685H186.682H186.679H186.675H186.672H186.669H186.666H186.662H186.659H186.656H186.653H186.65H186.646H186.643H186.64H186.637H186.634H186.63H186.627H186.624H186.621H186.618H186.614H186.611H186.608H186.605H186.602H186.598H186.595H186.592H186.589H186.586H186.582H186.579H186.576H186.573H186.569H186.566H186.563H186.56H186.557H186.553H186.55H186.547H186.544H186.541H186.537H186.534H186.531H186.528H186.525H186.521H186.518H186.515H186.512H186.509H186.505H186.502H186.499H186.496H186.493H186.489H186.486H186.483H186.48H186.477H186.473H186.47H186.467H186.464H186.46H186.457H186.454H186.451H186.448H186.444H186.441H186.438H186.435H186.432H186.428H186.425H186.422H186.419H186.416H186.412H186.409H186.406H186.403H186.4H186.396H186.393H186.39H186.387H186.384H186.38H186.377H186.374H186.371H186.368H186.364H186.361H186.358H186.355H186.352H186.348H186.345H186.342H186.339H186.336H186.332H186.329H186.326H186.323H186.32H186.316H186.313H186.31H186.307H186.303H186.3H186.297H186.294H186.291H186.287H186.284H186.281H186.278H186.275H186.271H186.268H186.265H186.262H186.259H186.255H186.252H186.249H186.246H186.243H186.239H186.236H186.233H186.23H186.227H186.223H186.22H186.217H186.214H186.211H186.207H186.204H186.201H186.198H186.195H186.191H186.188H186.185H186.182H186.179H186.175H186.172H186.169H186.166H186.163H186.159H186.156H186.153H186.15H186.147H186.143H186.14H186.137H186.134H186.131H186.127H186.124H186.121H186.118H186.115H186.111H186.108H186.105H186.102H186.099H186.095H186.092H186.089H186.086H186.083H186.079H186.076H186.073H186.07H186.067H186.063H186.06H186.057H186.054H186.051H186.047H186.044H186.041H186.038H186.035H186.031H186.028H186.025H186.022H186.019H186.015H186.012H186.009H186.006H186.003H185.999H185.996H185.993H185.99H185.987H185.983H185.98H185.977H185.974H185.971H185.967H185.964H185.961H185.958H185.955H185.951H185.948H185.945H185.942H185.939H185.935H185.932H185.929H185.926H185.923H185.919H185.916H185.913H185.91H185.907H185.903H185.9H185.897H185.894H185.891H185.887H185.884H185.881H185.878H185.875H185.871H185.868H185.865H185.862H185.859H185.855H185.852H185.849H185.846H185.843H185.839H185.836H185.833H185.83H185.827H185.823H185.82H185.817H185.814H185.811H185.807H185.804H185.801H185.798H185.795H185.791H185.788H185.785H185.782H185.779H185.776H185.772H185.769H185.766H185.763H185.76H185.756H185.753H185.75H185.747H185.744H185.74H185.737H185.734H185.731H185.728H185.724H185.721H185.718H185.715H185.712H185.708H185.705H185.702H185.699H185.696H185.692H185.689H185.686H185.683H185.68H185.676H185.673H185.67H185.667H185.664H185.66H185.657H185.654H185.651H185.648H185.644H185.641H185.638H185.635H185.632H185.629H185.625H185.622H185.619H185.616H185.613H185.609H185.606H185.603H185.6H185.597H185.593H185.59H185.587H185.584H185.581H185.577H185.574H185.571H185.568H185.565H185.561H185.558H185.555H185.552H185.549H185.545H185.542H185.539H185.536H185.533H185.529H185.526H185.523H185.52H185.517H185.514H185.51H185.507H185.504H185.501H185.498H185.494H185.491H185.488H185.485H185.482H185.478H185.475H185.472H185.469H185.466H185.462H185.459H185.456H185.453H185.45H185.446H185.443H185.44H185.437H185.434H185.43H185.427H185.424H185.421H185.418H185.415H185.411H185.408H185.405H185.402H185.399H185.395H185.392H185.389H185.386H185.383H185.379H185.376H185.373H185.37H185.367H185.363H185.36H185.357H185.354H185.351H185.348H185.344H185.341H185.338H185.335H185.332H185.328H185.325H185.322H185.319H185.316H185.312H185.309H185.306H185.303H185.3H185.296H185.293H185.29H185.287H185.284H185.281H185.277H185.274H185.271H185.268H185.265H185.261H185.258H185.255H185.252H185.249H185.245H185.242H185.239H185.236H185.233H185.229H185.226H185.223C184.538 158.738 183.978 159.124 183.529 159.665C183.081 160.205 182.697 160.951 182.354 161.802C181.668 163.507 181.098 165.767 180.543 167.984L180.512 168.106C179.963 170.301 179.426 172.446 178.799 174.053C178.479 174.873 178.147 175.52 177.8 175.954C177.453 176.39 177.141 176.551 176.858 176.551C176.52 176.551 176.074 176.355 175.513 175.889C174.963 175.432 174.362 174.765 173.721 173.941C172.44 172.293 171.054 170.087 169.657 167.855L169.574 167.722C168.211 165.546 166.839 163.354 165.568 161.697C164.92 160.852 164.285 160.127 163.676 159.61C163.081 159.104 162.444 158.738 161.8 158.738H161.612H161.425H161.238H161.05H160.863H160.676H160.489H160.302H160.115H159.929H159.742H159.556H159.369H159.183H158.997H158.81H158.624H158.438H158.252H158.067H157.881H157.695H157.51H157.324H157.139H156.953H156.768H156.583H156.398H156.213H156.028H155.843H155.659H155.474H155.289H155.105H154.921H154.736H154.552H154.368H154.184H154H153.816H153.632H153.448H153.264H153.081H152.897H152.714H152.53H152.347H152.164H151.98H151.797H151.614H151.431H151.248H151.065H150.882H150.7H150.517H150.334H150.152H149.969H149.787H149.605H149.422H149.24H149.058H148.876H148.694H148.512H148.33H148.148H147.966H147.785H147.603H147.421H147.24H147.058H146.877H146.695H146.514H146.333H146.152H145.97H145.789H145.608H145.427H145.246H145.065H144.884H144.704H144.523H144.342H144.162H143.981H143.8H143.62H143.439H143.259H143.079H142.898H142.718H142.538H142.357H142.177H141.997H141.817H141.637H141.457H141.277H141.097H140.917H140.738H140.558H140.378H140.198H140.019H139.839H139.659H139.48H139.3H139.121H138.941H138.762H138.582H138.403H138.224H138.044H137.865H137.686H137.507H137.328H137.148H136.969H136.79H136.611H136.432H136.253H136.074H135.895H135.716H135.537H135.358H135.18H135.001H134.822H134.643H134.464H134.286H134.107H133.928H133.749H133.571H133.392H133.213H133.035H132.856H132.678H132.499H132.321H132.142H131.963H131.785H131.606H131.428H131.25H131.071H130.893H130.714H130.536H130.357H130.179H130.001H129.822H129.644H129.465H129.287H129.109H128.93H128.752H128.574H128.395H128.217H128.039H127.86H127.682H127.504H127.325H127.147H126.969H126.79H126.612H126.434H126.255H126.077H125.899H125.72H125.542H125.364H125.185H125.007H124.829H124.65H124.472H124.294H124.115H123.937H123.758H123.58H123.402H123.223H123.045H122.866H122.688H122.509H122.331H122.152H121.974H121.795H121.617H121.438H121.26H121.081H120.902H120.724H120.545H120.366H120.188H120.009H119.83H119.652H119.473H119.294H119.115H118.936H118.758H118.579H118.4H118.221H118.042H117.863H117.684H117.505H117.326H117.147H116.968H116.789H116.61H116.43H116.251H116.072H115.893H115.713H115.534H115.355H115.175H114.996H114.816H114.637H114.457H114.278H114.098H113.918H113.739H113.559H113.379H113.199H113.019H112.84H112.66H112.48H112.3H112.12H111.94H111.759H111.579H111.399H111.219H111.038H110.858H110.678H110.497H110.317H110.136H109.956H109.775H109.594H109.414H109.233H109.052H108.871H108.69H108.509H108.328H108.147H107.966H107.785H107.604H107.422H107.241H107.059H106.878H106.696H106.515H106.333H106.152H105.97H105.788H105.606H105.424H105.242H105.06H104.878H104.696H104.514H104.331H104.149H103.966H103.784H103.601H103.419H103.236H103.053H102.87H102.688H102.505H102.322H102.138H101.955H101.772H101.589H101.405H101.222H101.038H100.855H100.671H100.487H100.304H100.12H99.9357H99.7516H99.5675H99.3833H99.199H99.0146H98.8302H98.6457H98.4611H98.2764H98.0917H97.9068H97.7219H97.5369H97.3518H97.1667H96.9814H96.7961H96.6107H96.4252H96.2396H96.0539H95.8682H95.6823H95.4964H95.3104H95.1243H94.9381H94.7518H94.5654H94.3789H94.1924H94.0057H93.819H93.6322H93.4452H93.2582H93.0711H92.8839H92.6966H92.5092H92.3217H92.1341H91.9464H91.7586H91.5707H91.3828H91.1947H91.0065H90.8182H90.6298H90.4413H90.2528H90.0641H89.8753H89.6864H89.4974H89.3083H89.1191H88.9298H88.7404H88.5509H88.3612H88.1715H87.9817H87.7917H87.6016H87.4115H87.2212H87.0308H86.8403H86.6497H86.459H86.2682H86.0772H85.8862H85.695H85.5037H85.3123H85.1208H84.9291H84.7374H84.5455H84.3535H84.1614H83.9692H83.7769H83.5844H83.3919H83.1992H83.0064H82.8134H82.6204H82.4272H82.2339H82.0404H81.8469H81.6532H81.4594H81.2655H81.0714H80.8773H80.683H80.4885H80.294H80.0993H79.9045H79.7095H79.5145H79.3192H79.1239H78.9284H78.7328H78.5371H78.3413H78.1453H77.9491H77.7529H77.5565H77.3599H77.1632H76.9664H76.7695H76.5724H76.3752H76.1778H75.9803H75.7827H75.5849H75.387H75.189H74.9908H74.7924H74.5939H74.3953H74.1965H73.9976H73.7986H73.5994H73.4H73.2005H73.0009H72.8011H72.6012H72.4011H72.2008H72.0005H71.7999H71.5992H71.3984H71.1974H70.9963H70.795H70.5936H70.392H70.1902H69.9883H69.7863H69.5841H69.3817H69.1792H68.9765H68.7737H68.5707H68.3676H68.1642H67.9608H67.7572H67.5534H67.3494H67.1453C52.4051 158.738 40.4492 146.788 40.4492 132.048V67.1385C40.4492 52.3984 52.3984 40.4492 67.1385 40.4492Z" stroke="#979797" stroke-width="0.898396"/>
</g>
<defs>
<filter id="filter0_f_2_6" x="0" y="0" width="254" height="217" filterUnits="userSpaceOnUse" color-interpolation-filters="sRGB">
<feFlood flood-opacity="0" result="BackgroundImageFix"/>
<feBlend mode="normal" in="SourceGraphic" in2="BackgroundImageFix" result="shape"/>
<feGaussianBlur stdDeviation="20" result="effect1_foregroundBlur_2_6"/>
</filter>
<linearGradient id="paint0_linear_2_6" x1="40" y1="28.7422" x2="142.174" y2="267.62" gradientUnits="userSpaceOnUse">
<stop stop-color="#CC1515" stop-opacity="0.8"/>
<stop offset="1" stop-color="#C6311F"/>
</linearGradient>
</defs>
</svg>
